{"title":"The Simpsons[S20][E14]-HDTv-LW","uid":4936254,"size":183896611,"categoryP":"video","categoryS":"hd___tv_shows","magnet":"?xt=urn:btih:1bb6c66c4a0f7f9ead66da594e1ebffdda41fdcd&amp;dn=The+Simpsons%5BS20%5D%5BE14%5D-HDTv-LW&amp;tr=udp%3A%2F%2Ftracker.openbittorrent.com%3A80&amp;tr=udp%3A%2F%2Fopen.demonii.com%3A1337&amp;tr=udp%3A%2F%2Ftracker.coppersurfer.tk%3A6969&amp;tr=udp%3A%2F%2Fexodus.desync.com%3A6969","seeders":1,"leechers":0,"uploader":"XoLWoX","files":5,"time":1244258665,"description":"-------------------------------------------------\nF I L E - I N F O\n-------------------------------------------------\nTITLE......[ The Simpsons - In the Name of the Grandfather\nSeason.....[ (20)\nEpisode....[ (14)\nYEAR.......[ 2009\nGENRE......[ Comedy / Anime\nRUNTIME....[ 00:21:00\nSTORE DATE.[ 2009 (USA)\n-------------------------------------------------\nFormat                           : AVI\nFormat/Info                      : Audio Video Interleave\nFile size                        : 175 MiB\nDuration                         : 21mn 0s\nOverall bit rate                 : 1 167 Kbps\nWriting application              : VirtualDubMod 1.5.10.2 (build 2540/release)\nWriting library                  : VirtualDubMod build 2540/release\nSOURCE                           : DVD\n-------------------------------------------------\nV I D E O\n-------------------------------------------------\nFormat                           : MPEG-4 Visual\nFormat profile                   : Streaming Video@L1\nFormat settings, BVOP            : Yes\nFormat settings, QPel            : No\nFormat settings, GMC             : No warppoints\nFormat settings, Matrix          : Default (H.263)\nCodec ID                         : XVID\nCodec ID/Hint                    : XviD\nDuration                         : 21mn 0s\nBit rate                         : 1 020 Kbps\nWidth                            : 624 pixels\nHeight                           : 352 pixels\nDisplay aspect ratio             : 16/9\nFrame rate                       : 25.000 fps\nResolution                       : 24 bits\nColorimetry                      : 4:2:0\nScan type                        : Progressive\nBits/(Pixel*Frame)               : 0.186\nStream size                      : 153 MiB (87%)\nWriting library                  : XviD 1.2.1 (UTC 2008-12-04)\n-------------------------------------------------\nA U D I O\n-------------------------------------------------\nFormat                           : MPEG Audio\nFormat version                   : Version 1\nFormat profile                   : Layer 3\nCodec ID                         : 55\nCodec ID/Hint                    : MP3\nDuration                         : 21mn 0s\nBit rate mode                    : Variable\nBit rate                         : 134 Kbps\nNominal bit rate                 : 128 Kbps\nChannel(s)                       : 2 channels\nSampling rate                    : 48.0 KHz\nResolution                       : 16 bits\nStream size                      : 20.2 MiB (12%)\nAlignment                        : Aligned on interleaves\nInterleave, duration             : 24 ms (0.60 video frame)\nInterleave, preload duration     : 448 ms\nWriting library                  : LAME3.90.\nEncoding settings                : ABR\n-------------------------------------------------\nP L O T\n-------------------------------------------------\n&quot;The Simpsons are going to...&quot; Ireland, as Homer \n(guilty over forgetting about a father-son wheelbarrow \nrace at Springfield Retirement Castle) takes Grampa \nto a pub he visited during the war for &quot;one final \nbeer&quot;, and the two of them end up buying it...which \nmight not be so bad if it had any customers.\n-------------------------------------------------","torrent":{"xt":"urn:btih:1bb6c66c4a0f7f9ead66da594e1ebffdda41fdcd","amp;dn":"The+Simpsons%5BS20%5D%5BE14%5D-HDTv-LW","amp;tr":["udp%3A%2F%2Ftracker.openbittorrent.com%3A80","udp%3A%2F%2Fopen.demonii.com%3A1337","udp%3A%2F%2Ftracker.coppersurfer.tk%3A6969","udp%3A%2F%2Fexodus.desync.com%3A6969"],"infoHash":"1bb6c66c4a0f7f9ead66da594e1ebffdda41fdcd","infoHashBuffer":{"type":"Buffer","data":[27,182,198,108,74,15,127,158,173,102,218,89,78,30,191,253,218,65,253,205]},"announce":[],"urlList":[]}}